<?xml version="1.0" encoding="UTF-8" standalone="no"?>
<!-- Created with Inkscape (http://www.inkscape.org/) -->

<svg
   width="89.936592mm"
   height="98.381813mm"
   viewBox="0 0 89.936593 98.381816"
   version="1.1"
   id="svg5"
   inkscape:version="1.1.2 (b8e25be833, 2022-02-05)"
   sodipodi:docname="user1.svg"
   xmlns:inkscape="http://www.inkscape.org/namespaces/inkscape"
   xmlns:sodipodi="http://sodipodi.sourceforge.net/DTD/sodipodi-0.dtd"
   xmlns="http://www.w3.org/2000/svg"
   xmlns:svg="http://www.w3.org/2000/svg">
  <sodipodi:namedview
     id="namedview7"
     pagecolor="#ffffff"
     bordercolor="#999999"
     borderopacity="1"
     inkscape:pageshadow="0"
     inkscape:pageopacity="0"
     inkscape:pagecheckerboard="0"
     inkscape:document-units="mm"
     showgrid="true"
     inkscape:zoom="0.77481166"
     inkscape:cx="476.89009"
     inkscape:cy="308.46206"
     inkscape:window-width="1366"
     inkscape:window-height="705"
     inkscape:window-x="-8"
     inkscape:window-y="-8"
     inkscape:window-maximized="1"
     inkscape:current-layer="layer1">
    <inkscape:grid
       type="xygrid"
       id="grid1046"
       originx="-0.61813703"
       originy="-11.123306" />
  </sodipodi:namedview>
  <defs
     id="defs2" />
  <g
     inkscape:label="Layer 1"
     inkscape:groupmode="layer"
     id="layer1"
     transform="translate(-55.927666,-58.68583)">
    <path
       d="m 669.14286,111.06252 c 8.81667,-4.95434 14.7922,-14.357473 14.7922,-25.145764 0.0101,-15.914497 -12.99246,-28.856404 -28.95752,-28.856404 -15.97517,0 -28.96763,12.941907 -28.96763,28.866516 0,10.373743 5.54076,19.463432 13.80134,24.549222 -18.68489,5.86431 -32.284,23.29543 -32.284,43.8306 0,0.61676 0.0708,1.22341 0.091,1.84018 h 6.44062 c -0.0303,-0.61677 -0.091,-1.22342 -0.091,-1.84018 0,-21.78892 17.80523,-39.52336 39.69526,-39.52336 21.89001,0 39.69525,17.72434 39.69525,39.52336 0,0.61676 -0.0607,1.22341 -0.091,1.84018 h 6.44062 c 0.0202,-0.61677 0.0909,-1.22342 0.0909,-1.84018 0,-19.92851 -12.82058,-36.88443 -30.65614,-43.24417 z M 632.44042,85.926868 c 0,-12.365585 10.11087,-22.425894 22.52701,-22.425894 12.42625,0 22.527,10.060309 22.527,22.425894 0,12.365586 -10.10075,22.425942 -22.527,22.425942 -12.41614,-0.0101 -22.52701,-10.060356 -22.52701,-22.425942 z"
       id="path1034"
       style="fill:#787878;fill-opacity:1;stroke-width:0.101108" />
    <path
       d="m 129.39286,126.93752 q 0,4.49372 -2.95493,7.09632 -2.95494,2.60261 -7.85285,2.60261 H 83.206837 q -4.897907,0 -7.852841,-2.60261 -2.954932,-2.6026 -2.954932,-7.09632 0,-1.98471 0.141674,-3.87581 0.141675,-1.89109 0.566698,-4.08178 0.425027,-2.19068 1.072683,-4.06306 0.647658,-1.87238 1.740579,-3.65114 1.09292,-1.77875 2.509667,-3.03325 1.416752,-1.2545 3.460918,-2.00343 2.044167,-0.74896 4.513358,-0.74896 0.364307,0 1.700099,0.80512 1.335792,0.80513 3.015651,1.79748 1.67986,0.99236 4.371683,1.79749 2.691823,0.80512 5.403876,0.80512 2.71207,0 5.40389,-0.80512 2.69183,-0.80513 4.37169,-1.79749 1.67985,-0.99235 3.01565,-1.79748 1.33579,-0.80512 1.7001,-0.80512 2.46919,0 4.51335,0.74896 2.04416,0.74893 3.46091,2.00343 1.41675,1.2545 2.50969,3.03325 1.09291,1.77876 1.74056,3.65114 0.64766,1.87238 1.07268,4.06306 0.42502,2.19069 0.5667,4.08178 0.14169,1.8911 0.14169,3.87581 z M 116.43972,93.496873 q 0,5.954161 -4.55384,10.167007 -4.55382,4.21286 -10.98993,4.21286 -6.43608,0 -10.989915,-4.21286 -4.553837,-4.212846 -4.553837,-10.167007 0,-5.954159 4.553837,-10.167004 4.553835,-4.212849 10.989915,-4.212849 6.43611,0 10.98993,4.212849 4.55384,4.212845 4.55384,10.167004 z"
       id="path1306"
       style="fill:#787878;fill-opacity:1;stroke-width:0.0389335" />
  </g>
</svg>
